<svg width="636" height="307" viewBox="0 0 636 307" fill="none" xmlns="http://www.w3.org/2000/svg">
<path d="M218.8 7.6C209.467 20.9333 197.2 32 182 40.8C166.8 49.6 151.467 54 136 54C130.933 60.4 127.2 66.5333 124.8 72.4C122.667 78.2667 121.6 85.0667 121.6 92.8V222C121.6 241.2 117.333 257.333 108.8 270.4C100.533 283.467 87.6 295.467 70 306.4L61.6 296.8C68.5333 288 72 275.067 72 258V116C72 104.8 75.4667 94 82.4 83.6C89.6 72.9333 98.4 63.0667 108.8 54L55.6 53.6C46.5333 53.6 38.2667 55.6 30.8 59.6C23.3333 63.6 16.2667 69.7333 9.6 78L0.8 69.6C13.3333 53.0667 26.1333 40 39.2 30.4C52.5333 20.8 67.6 16 84.4 16H143.6C156.4 16 169.333 14.9333 182.4 12.8C195.467 10.4 205.333 6.26665 212 0.399993L218.8 7.6ZM284.047 289.2L234.047 305.2V20.4L284.047 4.79998V289.2ZM398.891 3.99999V74C414.091 28.6667 440.757 5.99999 478.891 5.99999C495.691 5.99999 508.491 11.6 517.291 22.8C526.091 33.7333 530.491 47.3333 530.491 63.6V257.6C530.491 263.2 531.691 267.867 534.091 271.6C536.491 275.067 540.091 276.8 544.891 276.8C549.157 276.8 553.291 275.6 557.291 273.2C561.557 270.533 565.157 267.2 568.091 263.2L576.891 271.2C571.291 280.267 564.357 287.467 556.091 292.8C547.824 298.133 537.557 300.8 525.291 300.8C511.157 300.8 500.091 296.4 492.091 287.6C484.357 278.8 480.491 265.467 480.491 247.6V76.8C480.491 62.6667 479.157 51.2 476.491 42.4C473.824 33.3333 467.557 28.8 457.691 28.8C444.891 28.8 434.091 35.7333 425.291 49.6C416.491 63.4667 409.824 79.6 405.291 98C401.024 116.4 398.891 131.733 398.891 144V288L348.891 304.8V20.4L398.891 3.99999ZM635.356 276.8C635.356 284 632.556 290.267 626.956 295.6C621.623 300.667 615.223 303.2 607.756 303.2C600.29 303.2 593.89 300.667 588.556 295.6C583.223 290.533 580.556 284.267 580.556 276.8C580.556 269.6 583.223 263.333 588.556 258C593.89 252.4 600.29 249.6 607.756 249.6C615.223 249.6 621.623 252.4 626.956 258C632.556 263.333 635.356 269.6 635.356 276.8Z" fill="url(#paint0_linear_1_4)"/>
<defs>
<linearGradient id="paint0_linear_1_4" x1="4" y1="170" x2="652" y2="170" gradientUnits="userSpaceOnUse">
<stop stop-color="#FF75C3"/>
<stop offset="0.2" stop-color="#FFA647"/>
<stop offset="0.4" stop-color="#FFE83F"/>
<stop offset="0.6" stop-color="#9FFF5B"/>
<stop offset="0.8" stop-color="#70E2FF"/>
<stop offset="1" stop-color="#CD93FF"/>
</linearGradient>
</defs>
</svg>
